<?xml version="1.0" standalone="no"?>
<!DOCTYPE svg PUBLIC "-//W3C//DTD SVG 20010904//EN"
 "http://www.w3.org/TR/2001/REC-SVG-20010904/DTD/svg10.dtd">
<svg version="1.0" xmlns="http://www.w3.org/2000/svg"
 width="401.000000pt" height="362.000000pt" viewBox="0 0 401.000000 362.000000"
 preserveAspectRatio="xMidYMid meet">

<g transform="translate(0.000000,362.000000) scale(0.100000,-0.100000)"
fill="#000000" stroke="none">
<path d="M1102 3609 c-210 -36 -371 -155 -465 -344 -70 -140 -70 -138 -74
-666 l-4 -477 -142 0 c-98 0 -157 -5 -189 -15 -144 -45 -217 -141 -218 -288 0
-85 22 -147 72 -204 73 -83 144 -105 340 -105 l137 0 4 -488 c4 -536 4 -536
70 -670 36 -75 144 -195 221 -246 29 -19 89 -48 132 -63 78 -28 82 -28 324
-28 l245 0 57 28 c67 33 112 80 146 155 21 47 24 65 20 131 -9 152 -93 247
-246 280 -29 6 -120 11 -202 11 -137 0 -150 2 -160 19 -6 13 -10 166 -10 428
0 442 -2 461 -56 572 -16 31 -56 85 -90 119 l-62 64 46 46 c63 66 107 137 139
229 l27 78 -3 395 c-2 335 0 398 13 415 13 18 29 20 198 25 175 5 185 6 240
33 220 108 222 430 4 545 -50 27 -54 27 -256 29 -113 1 -229 -3 -258 -8z"/>
<path d="M2431 3600 c-68 -25 -116 -61 -151 -117 -101 -158 -41 -363 129 -441
51 -24 70 -27 233 -32 122 -4 182 -10 190 -18 10 -10 14 -117 19 -440 5 -404
6 -430 26 -484 27 -72 66 -128 137 -197 l55 -54 -63 -62 c-68 -66 -103 -120
-132 -200 -16 -44 -19 -99 -24 -482 -3 -237 -9 -435 -13 -440 -5 -4 -90 -11
-190 -14 -195 -6 -224 -12 -295 -63 -182 -129 -152 -424 53 -518 46 -21 67
-23 257 -26 186 -3 214 -2 284 18 214 58 364 186 445 380 54 127 58 180 59
661 l0 437 163 4 c142 3 168 6 212 26 112 51 179 154 179 277 0 94 -29 160
-100 224 -79 73 -127 86 -306 86 l-147 0 -4 480 c-4 538 -3 531 -80 680 -56
108 -166 219 -269 269 -106 52 -194 66 -421 66 -164 -1 -200 -4 -246 -20z"/>
</g>
</svg>
